<?xml version="1.0" encoding="UTF-8" standalone="no"?>
<!-- Created with Inkscape (http://www.inkscape.org/) -->

<svg
   xmlns:dc="http://purl.org/dc/elements/1.1/"
   xmlns:cc="http://creativecommons.org/ns#"
   xmlns:rdf="http://www.w3.org/1999/02/22-rdf-syntax-ns#"
   xmlns:svg="http://www.w3.org/2000/svg"
   xmlns="http://www.w3.org/2000/svg"
   xmlns:sodipodi="http://sodipodi.sourceforge.net/DTD/sodipodi-0.dtd"
   xmlns:inkscape="http://www.inkscape.org/namespaces/inkscape"
   width="128"
   height="64"
   id="svg3804"
   version="1.1"
   inkscape:version="0.48.5 r10040"
   sodipodi:docname="endfloor.svg"
   inkscape:export-filename="F:\love2d\blockors\svg\endfloor.png"
   inkscape:export-xdpi="90"
   inkscape:export-ydpi="90">
  <defs
     id="defs3806" />
  <sodipodi:namedview
     id="base"
     pagecolor="#ffffff"
     bordercolor="#666666"
     borderopacity="1.0"
     inkscape:pageopacity="0.0"
     inkscape:pageshadow="2"
     inkscape:zoom="2.8284271"
     inkscape:cx="-40.555668"
     inkscape:cy="-2.226381"
     inkscape:document-units="px"
     inkscape:current-layer="g3003"
     showgrid="true"
     inkscape:window-width="1920"
     inkscape:window-height="1028"
     inkscape:window-x="-8"
     inkscape:window-y="-8"
     inkscape:window-maximized="1"
     inkscape:snap-grids="false"
     inkscape:snap-to-guides="false">
    <inkscape:grid
       type="xygrid"
       id="grid3923"
       empspacing="5"
       visible="true"
       enabled="true"
       snapvisiblegridlinesonly="true"
       spacingx="64px"
       spacingy="64px" />
  </sodipodi:namedview>
  <metadata
     id="metadata3809">
    <rdf:RDF>
      <cc:Work
         rdf:about="">
        <dc:format>image/svg+xml</dc:format>
        <dc:type
           rdf:resource="http://purl.org/dc/dcmitype/StillImage" />
        <dc:title></dc:title>
      </cc:Work>
    </rdf:RDF>
  </metadata>
  <g
     inkscape:label="Layer 1"
     inkscape:groupmode="layer"
     id="layer1"
     transform="translate(0,-988.3622)">
    <g
       id="g3003"
       transform="translate(0,19.64278)">
      <path
         inkscape:connector-curvature="0"
         id="path3785"
         d="M 31.999996,987.66226 0.47636802,1003.1859 31.999996,1018.7095 63.523632,1003.1859 z"
         style="fill:#ffe680;stroke:#554400;stroke-width:0.95273602;stroke-linecap:round;stroke-linejoin:round;stroke-miterlimit:4;stroke-opacity:1;stroke-dasharray:none" />
      <path
         sodipodi:nodetypes="ccccc"
         inkscape:connector-curvature="0"
         id="path3787"
         d="m 0.47416539,1003.1936 0,13.6778 31.55166961,15.3737 0,-13.6777 z"
         style="fill:#ffd42a;stroke:#554400;stroke-width:0.94833076;stroke-linecap:round;stroke-linejoin:round;stroke-miterlimit:4;stroke-opacity:1;stroke-dasharray:none" />
      <path
         sodipodi:nodetypes="ccccc"
         inkscape:connector-curvature="0"
         id="path3787-1"
         d="m 63.525835,1003.1936 0,13.6778 -31.55167,15.3737 0,-13.6777 z"
         style="fill:#aa8800;stroke:#554400;stroke-width:0.94832981;stroke-linecap:round;stroke-linejoin:round;stroke-miterlimit:4;stroke-opacity:1;stroke-dasharray:none" />
      <path
         sodipodi:type="arc"
         style="color:#000000;fill:#00d4aa;fill-opacity:1;fill-rule:nonzero;stroke:none;stroke-width:1.06055176000000010;marker:none;visibility:visible;display:inline;overflow:visible;enable-background:accumulate"
         id="path2994"
         sodipodi:cx="0.125"
         sodipodi:cy="48"
         sodipodi:rx="21.75"
         sodipodi:ry="21.75"
         d="m 21.875,48 a 21.75,21.75 0 1 1 -43.5,0 21.75,21.75 0 1 1 43.5,0 z"
         transform="matrix(-0.97482181,0,0,0.4874109,32.121853,979.72921)" />
      <path
         sodipodi:type="arc"
         style="color:#000000;fill:#00aa88;fill-opacity:1;fill-rule:nonzero;stroke:none;stroke-width:1.06055176000000010;marker:none;visibility:visible;display:inline;overflow:visible;enable-background:accumulate"
         id="path2994-8"
         sodipodi:cx="0.125"
         sodipodi:cy="48"
         sodipodi:rx="21.75"
         sodipodi:ry="21.75"
         d="m 21.875,48 a 21.75,21.75 0 1 1 -43.5,0 21.75,21.75 0 1 1 43.5,0 z"
         transform="matrix(-0.84263789,0,0,0.42131895,32.10533,982.90162)" />
      <path
         sodipodi:type="arc"
         style="color:#000000;fill:#00d4aa;fill-opacity:1;fill-rule:nonzero;stroke:none;stroke-width:1.06055176000000010;marker:none;visibility:visible;display:inline;overflow:visible;enable-background:accumulate"
         id="path2994-82"
         sodipodi:cx="0.125"
         sodipodi:cy="48"
         sodipodi:rx="21.75"
         sodipodi:ry="21.75"
         d="m 21.875,48 a 21.75,21.75 0 1 1 -43.5,0 21.75,21.75 0 1 1 43.5,0 z"
         transform="matrix(-0.65298273,0,0,0.32649136,32.081623,987.45335)" />
      <path
         sodipodi:type="arc"
         style="color:#000000;fill:#00aa88;fill-opacity:1;fill-rule:nonzero;stroke:none;stroke-width:1.06055176000000010;marker:none;visibility:visible;display:inline;overflow:visible;enable-background:accumulate"
         id="path2994-4"
         sodipodi:cx="0.125"
         sodipodi:cy="48"
         sodipodi:rx="21.75"
         sodipodi:ry="21.75"
         d="m 21.875,48 a 21.75,21.75 0 1 1 -43.5,0 21.75,21.75 0 1 1 43.5,0 z"
         transform="matrix(-0.46045399,0,0,0.23022699,32.057557,992.07403)" />
      <path
         sodipodi:type="arc"
         style="color:#000000;fill:#00d4aa;fill-opacity:1;fill-rule:nonzero;stroke:none;stroke-width:1.06055176000000010;marker:none;visibility:visible;display:inline;overflow:visible;enable-background:accumulate"
         id="path2994-5"
         sodipodi:cx="0.125"
         sodipodi:cy="48"
         sodipodi:rx="21.75"
         sodipodi:ry="21.75"
         d="m 21.875,48 a 21.75,21.75 0 1 1 -43.5,0 21.75,21.75 0 1 1 43.5,0 z"
         transform="matrix(-0.29091376,0,0,0.14545688,32.036364,996.143)" />
      <path
         sodipodi:type="arc"
         style="color:#000000;fill:#00aa88;fill-opacity:1;fill-rule:nonzero;stroke:none;stroke-width:1.06055176000000010;marker:none;visibility:visible;display:inline;overflow:visible;enable-background:accumulate"
         id="path2994-5-5"
         sodipodi:cx="0.125"
         sodipodi:cy="48"
         sodipodi:rx="21.75"
         sodipodi:ry="21.75"
         d="m 21.875,48 a 21.75,21.75 0 1 1 -43.5,0 21.75,21.75 0 1 1 43.5,0 z"
         transform="matrix(-0.13861491,0,0,0.06930745,32.017326,999.79817)" />
      <path
         inkscape:connector-curvature="0"
         id="path3785-7"
         d="m 95.999996,987.66241 -31.523628,15.52369 31.523628,15.5236 31.523634,-15.5236 z"
         style="fill:#ffe680;stroke:#554400;stroke-width:0.95273602;stroke-linecap:round;stroke-linejoin:round;stroke-miterlimit:4;stroke-opacity:1;stroke-dasharray:none" />
      <path
         sodipodi:nodetypes="ccccc"
         inkscape:connector-curvature="0"
         id="path3787-11"
         d="m 64.474165,1003.1938 0,13.6778 31.55167,15.3737 0,-13.6777 z"
         style="fill:#ffd42a;stroke:#554400;stroke-width:0.94833076;stroke-linecap:round;stroke-linejoin:round;stroke-miterlimit:4;stroke-opacity:1;stroke-dasharray:none" />
      <path
         sodipodi:nodetypes="ccccc"
         inkscape:connector-curvature="0"
         id="path3787-1-5"
         d="m 127.52584,1003.1938 0,13.6778 -31.551675,15.3737 0,-13.6777 z"
         style="fill:#aa8800;stroke:#554400;stroke-width:0.94832981;stroke-linecap:round;stroke-linejoin:round;stroke-miterlimit:4;stroke-opacity:1;stroke-dasharray:none" />
      <path
         sodipodi:type="arc"
         style="color:#000000;fill:#00aa88;fill-opacity:1;fill-rule:nonzero;stroke:none;stroke-width:1.06055176000000010;marker:none;visibility:visible;display:inline;overflow:visible;enable-background:accumulate"
         id="path2994-2"
         sodipodi:cx="0.125"
         sodipodi:cy="48"
         sodipodi:rx="21.75"
         sodipodi:ry="21.75"
         d="m 21.875,48 a 21.75,21.75 0 1 1 -43.5,0 21.75,21.75 0 1 1 43.5,0 z"
         transform="matrix(-0.97482181,0,0,0.4874109,96.121853,979.72936)" />
      <path
         sodipodi:type="arc"
         style="color:#000000;fill:#00d4aa;fill-opacity:1;fill-rule:nonzero;stroke:none;stroke-width:1.06055176000000010;marker:none;visibility:visible;display:inline;overflow:visible;enable-background:accumulate"
         id="path2994-8-7"
         sodipodi:cx="0.125"
         sodipodi:cy="48"
         sodipodi:rx="21.75"
         sodipodi:ry="21.75"
         d="m 21.875,48 a 21.75,21.75 0 1 1 -43.5,0 21.75,21.75 0 1 1 43.5,0 z"
         transform="matrix(-0.84263789,0,0,0.42131895,96.10533,982.90177)" />
      <path
         sodipodi:type="arc"
         style="color:#000000;fill:#00aa88;fill-opacity:1;fill-rule:nonzero;stroke:none;stroke-width:1.06055176000000010;marker:none;visibility:visible;display:inline;overflow:visible;enable-background:accumulate"
         id="path2994-82-6"
         sodipodi:cx="0.125"
         sodipodi:cy="48"
         sodipodi:rx="21.75"
         sodipodi:ry="21.75"
         d="m 21.875,48 a 21.75,21.75 0 1 1 -43.5,0 21.75,21.75 0 1 1 43.5,0 z"
         transform="matrix(-0.65298273,0,0,0.32649136,96.081623,987.4535)" />
      <path
         sodipodi:type="arc"
         style="color:#000000;fill:#00d4aa;fill-opacity:1;fill-rule:nonzero;stroke:none;stroke-width:1.06055176000000010;marker:none;visibility:visible;display:inline;overflow:visible;enable-background:accumulate"
         id="path2994-4-1"
         sodipodi:cx="0.125"
         sodipodi:cy="48"
         sodipodi:rx="21.75"
         sodipodi:ry="21.75"
         d="m 21.875,48 a 21.75,21.75 0 1 1 -43.5,0 21.75,21.75 0 1 1 43.5,0 z"
         transform="matrix(-0.46045399,0,0,0.23022699,96.057557,992.07418)" />
      <path
         sodipodi:type="arc"
         style="color:#000000;fill:#00aa88;fill-opacity:1;fill-rule:nonzero;stroke:none;stroke-width:1.06055176000000010;marker:none;visibility:visible;display:inline;overflow:visible;enable-background:accumulate"
         id="path2994-5-4"
         sodipodi:cx="0.125"
         sodipodi:cy="48"
         sodipodi:rx="21.75"
         sodipodi:ry="21.75"
         d="m 21.875,48 a 21.75,21.75 0 1 1 -43.5,0 21.75,21.75 0 1 1 43.5,0 z"
         transform="matrix(-0.29091376,0,0,0.14545688,96.036364,996.14315)" />
      <path
         sodipodi:type="arc"
         style="color:#000000;fill:#00d4aa;fill-opacity:1;fill-rule:nonzero;stroke:none;stroke-width:1.06055176000000010;marker:none;visibility:visible;display:inline;overflow:visible;enable-background:accumulate"
         id="path2994-5-5-2"
         sodipodi:cx="0.125"
         sodipodi:cy="48"
         sodipodi:rx="21.75"
         sodipodi:ry="21.75"
         d="m 21.875,48 a 21.75,21.75 0 1 1 -43.5,0 21.75,21.75 0 1 1 43.5,0 z"
         transform="matrix(-0.13861491,0,0,0.06930745,96.017326,999.79832)" />
    </g>
  </g>
</svg>
