<?xml version="1.0" encoding="UTF-8" standalone="no"?>
<!-- Created with Inkscape (http://www.inkscape.org/) -->

<svg
   xmlns:dc="http://purl.org/dc/elements/1.1/"
   xmlns:cc="http://creativecommons.org/ns#"
   xmlns:rdf="http://www.w3.org/1999/02/22-rdf-syntax-ns#"
   xmlns:svg="http://www.w3.org/2000/svg"
   xmlns="http://www.w3.org/2000/svg"
   xmlns:sodipodi="http://sodipodi.sourceforge.net/DTD/sodipodi-0.dtd"
   xmlns:inkscape="http://www.inkscape.org/namespaces/inkscape"
   width="120"
   height="60"
   id="svg2"
   version="1.1"
   inkscape:version="0.48.5 r10040"
   sodipodi:docname="pretry.svg"
   inkscape:export-filename="pretry.png"
   inkscape:export-xdpi="90"
   inkscape:export-ydpi="90">
  <defs
     id="defs4" />
  <sodipodi:namedview
     id="base"
     pagecolor="#ffffff"
     bordercolor="#666666"
     borderopacity="1.0"
     inkscape:pageopacity="0.0"
     inkscape:pageshadow="2"
     inkscape:zoom="4"
     inkscape:cx="136.58568"
     inkscape:cy="73.88246"
     inkscape:document-units="px"
     inkscape:current-layer="layer1"
     showgrid="false"
     inkscape:window-width="1920"
     inkscape:window-height="1028"
     inkscape:window-x="-8"
     inkscape:window-y="-8"
     inkscape:window-maximized="1" />
  <metadata
     id="metadata7">
    <rdf:RDF>
      <cc:Work
         rdf:about="">
        <dc:format>image/svg+xml</dc:format>
        <dc:type
           rdf:resource="http://purl.org/dc/dcmitype/StillImage" />
        <dc:title></dc:title>
      </cc:Work>
    </rdf:RDF>
  </metadata>
  <g
     inkscape:label="Layer 1"
     inkscape:groupmode="layer"
     id="layer1"
     transform="translate(0,-992.3622)">
    <path
       sodipodi:type="arc"
       style="color:#000000;fill:#ffeeaa;fill-opacity:1;fill-rule:nonzero;stroke:#d4aa00;stroke-width:2.05861497;stroke-linecap:round;stroke-linejoin:round;stroke-miterlimit:4;stroke-opacity:1;stroke-dasharray:none;stroke-dashoffset:0;marker:none;visibility:visible;display:inline;overflow:visible;enable-background:accumulate"
       id="path2985"
       sodipodi:cx="24.759151"
       sodipodi:cy="28.516378"
       sodipodi:rx="19.556841"
       sodipodi:ry="19.556841"
       d="m 44.315992,28.516378 c 0,10.800945 -8.755896,19.556841 -19.556841,19.556841 -10.800945,0 -19.5568404,-8.755896 -19.5568404,-19.556841 0,-10.800945 8.7558954,-19.5568405 19.5568404,-19.5568405 10.800945,0 19.556841,8.7558955 19.556841,19.5568405 z"
       transform="matrix(1.4572906,0,0,1.4572906,-6.0812782,980.80555)" />
    <path
       transform="matrix(1.3378151,0,0,1.3378151,56.876833,984.21256)"
       d="m 44.315992,28.516378 c 0,10.800945 -8.755896,19.556841 -19.556841,19.556841 -10.800945,0 -19.5568404,-8.755896 -19.5568404,-19.556841 0,-10.800945 8.7558954,-19.5568405 19.5568404,-19.5568405 10.800945,0 19.556841,8.7558955 19.556841,19.5568405 z"
       sodipodi:ry="19.556841"
       sodipodi:rx="19.556841"
       sodipodi:cy="28.516378"
       sodipodi:cx="24.759151"
       id="path2998"
       style="color:#000000;fill:#d5d5d5;fill-opacity:1;fill-rule:nonzero;stroke:#6a6a6a;stroke-width:2.24246216;stroke-linecap:round;stroke-linejoin:round;stroke-miterlimit:4;stroke-opacity:1;stroke-dasharray:none;stroke-dashoffset:0;marker:none;visibility:visible;display:inline;overflow:visible;enable-background:accumulate"
       sodipodi:type="arc" />
    <path
       style="color:#000000;fill:#d4aa00;fill-opacity:1;fill-rule:nonzero;stroke:#d4aa00;stroke-width:3.00000024;stroke-linecap:round;stroke-linejoin:round;stroke-miterlimit:4;stroke-opacity:1;stroke-dashoffset:0;marker:none;visibility:visible;display:inline;overflow:visible;enable-background:accumulate"
       d="m 26.658765,1000.5324 1.575213,9.3289 1.555702,9.3407 6.24004,-5.6686 c 22.072937,20.6874 -14.88882,41.0292 -18.586619,8.6519 -1.583426,-7.0005 -9.8446134,-5.3087 -8.665535,-0.1033 9.463413,34.5996 55.110586,25.2723 30.747945,-9.6683 l 4.851761,-5.2476 -8.853384,-3.3071 z"
       id="rect3007"
       inkscape:connector-curvature="0"
       sodipodi:nodetypes="cccccccccc" />
    <path
       sodipodi:nodetypes="cccccccccc"
       inkscape:connector-curvature="0"
       id="path3041"
       d="m 88.728758,1004.0679 1.289495,7.6522 1.273524,7.6617 5.1082,-4.6497 c 18.069273,16.969 -12.188235,33.6545 -15.215315,7.0968 -1.296219,-5.7422 -8.058964,-4.3545 -7.093751,-0.085 7.746907,28.3805 45.114449,20.7298 25.170776,-7.9305 l 3.971743,-4.3044 -7.247535,-2.7127 z"
       style="color:#000000;fill:#6a6a6a;fill-opacity:1;fill-rule:nonzero;stroke:#6a6a6a;stroke-width:2.99999976000000010;stroke-linecap:round;stroke-linejoin:round;stroke-miterlimit:4;stroke-opacity:1;stroke-dashoffset:0;marker:none;visibility:visible;display:inline;overflow:visible;enable-background:accumulate;stroke-dasharray:none" />
  </g>
</svg>
